<svg width="244" height="30" viewBox="0 0 244 30" fill="none" xmlns="http://www.w3.org/2000/svg">
<g clip-path="url(#clip0_64875_1966)">
<path d="M23.4334 7.6601V0.732178H0.447607V8.66982H10.7827L0 21.2413V29.2591H23.7605V21.0812H11.962L23.4334 7.6601Z" fill="black"/>
<path d="M93.9084 23.8987H93.785L86.0065 0.732178H81.9923L74.3343 23.8987H74.2109L67.3418 0.732178H62.9031L71.9011 29.2619H76.403L83.8774 6.15552H83.998L91.5987 29.2619H96.0948L105.096 0.732178H100.717L93.9084 23.8987Z" fill="black"/>
<path d="M163.086 0.00292969C161.061 0.00292969 159.138 0.520664 157.314 1.55613C155.489 2.5916 154.172 3.94458 153.36 5.6122H153.239C153.239 5.30327 153.233 4.94858 153.222 4.55671V0.732335H149.285V29.2592H153.42V14.6282C153.42 12.7203 153.664 11.0613 154.149 9.65968C154.634 8.26094 155.285 7.09961 156.094 6.18714C156.906 5.27467 157.827 4.59389 158.863 4.14481C159.899 3.69572 160.957 3.47547 162.054 3.47547C163.551 3.47547 164.799 3.71861 165.792 4.20488C166.788 4.69401 167.574 5.37478 168.165 6.24721C168.75 7.1225 169.166 8.16941 169.41 9.3908C169.654 10.6065 169.778 11.9709 169.778 13.4726V29.2592H173.909V11.7649C173.909 8.22662 173.006 5.38623 171.204 3.23234C169.402 1.07844 166.696 0.00292969 163.086 0.00292969Z" fill="black"/>
<path d="M207.041 4.1762C205.905 2.8976 204.487 1.87929 202.786 1.12986C201.084 0.377574 199.119 0 196.887 0C194.861 0 192.976 0.377574 191.231 1.12986C189.49 1.87929 187.966 2.92906 186.672 4.26773C185.375 5.61213 184.362 7.19394 183.631 9.0246C182.902 10.8524 182.537 12.8432 182.537 14.9971C182.537 17.151 182.913 19.1419 183.662 20.9697C184.411 22.7975 185.435 24.3821 186.732 25.7237C188.029 27.0624 189.581 28.1121 191.38 28.8616C193.185 29.611 195.139 29.9886 197.251 29.9886C199.601 29.9886 201.799 29.5223 203.845 28.5898C205.89 27.6545 207.767 26.1127 209.468 23.9559L206.37 21.516C205.558 22.8175 204.373 23.9674 202.812 24.9628C201.254 25.9611 199.397 26.4588 197.251 26.4588C195.791 26.4588 194.433 26.1842 193.174 25.635C191.917 25.0887 190.824 24.345 189.891 23.4096C188.959 22.4743 188.227 21.3787 187.705 20.1201C187.177 18.8616 186.893 17.5172 186.853 16.0955H210.441C210.478 15.7294 210.501 15.3833 210.501 15.0601V14.1476C210.501 12.1968 210.206 10.3661 209.618 8.66133C209.029 6.95366 208.169 5.46053 207.035 4.17906L207.041 4.1762ZM186.919 12.8003C186.999 11.5847 187.303 10.4176 187.828 9.29634C188.356 8.18078 189.065 7.18535 189.957 6.31007C190.85 5.43764 191.88 4.74828 193.059 4.23913C194.233 3.72998 195.509 3.47826 196.889 3.47826C199.848 3.47826 202.126 4.35927 203.73 6.12986C205.331 7.8976 206.192 10.123 206.309 12.8003H186.919Z" fill="black"/>
<path d="M241.297 3.23234C239.492 1.07844 236.787 0.00292969 233.18 0.00292969C231.154 0.00292969 229.229 0.520664 227.404 1.55613C225.579 2.5916 224.265 3.94458 223.453 5.6122H223.333C223.333 5.30327 223.327 4.94858 223.316 4.55671V0.732335H219.379V29.2592H223.516V14.6282C223.516 12.7203 223.76 11.0613 224.245 9.65968C224.73 8.26094 225.381 7.09961 226.191 6.18714C227.003 5.27467 227.924 4.59389 228.957 4.14481C229.992 3.69572 231.054 3.47547 232.147 3.47547C233.645 3.47547 234.893 3.71861 235.886 4.20488C236.881 4.69401 237.668 5.37478 238.259 6.24721C238.841 7.1225 239.26 8.16941 239.504 9.38794C239.748 10.6065 239.868 11.9709 239.868 13.4726V29.2592H244V11.7649C244 8.22662 243.096 5.38623 241.294 3.23234H241.297Z" fill="black"/>
<path d="M43.3633 0.00292969C35.1027 0.00292969 28.403 6.71918 28.403 15.0029C28.403 23.2867 35.0998 30.0001 43.3605 30.0001C51.6211 30.0001 58.318 23.2838 58.318 15.0029C58.318 6.72204 51.624 0.00292969 43.3633 0.00292969ZM43.3633 20.9383C40.0952 20.9383 37.444 18.281 37.444 15.0029C37.444 11.7249 40.0952 9.06757 43.3633 9.06757C46.6314 9.06757 49.2826 11.7249 49.2826 15.0029C49.2826 18.281 46.6314 20.9383 43.3633 20.9383Z" fill="black"/>
<path d="M125.247 0.00292969C116.986 0.00292969 110.289 6.71918 110.289 15.0029C110.289 23.2867 116.986 30.0001 125.247 30.0001C133.507 30.0001 140.204 23.2838 140.204 15.0029C140.204 6.72204 133.507 0.00292969 125.247 0.00292969ZM125.247 26.5189C118.903 26.5189 113.761 21.3616 113.761 15.0029C113.761 8.64423 118.903 3.48691 125.247 3.48691C131.591 3.48691 136.732 8.64423 136.732 15.0029C136.732 21.3616 131.591 26.5189 125.247 26.5189Z" fill="black"/>
</g>
<defs>
<clipPath id="clip0_64875_1966">
<rect width="244" height="30" fill="white"/>
</clipPath>
</defs>
</svg>
